<?xml version="1.0" encoding="utf-8"?>
<svg version="1.1" xmlns="http://www.w3.org/2000/svg" xmlns:xlink="http://www.w3.org/1999/xlink"
	 viewBox="-70 0 199.5 167.4"  xml:space="preserve">
<g>
	<path fill='white' d="M-11.4,71h37.5v53.7c-5.8,1.9-11.8,3.3-17.8,4.2c-6,1-13,1.4-21,1.4c-16.7,0-29.7-5-39-14.9c-9.3-9.9-14-23.9-14-41.8
		c0-11.3,2.2-21.2,6.7-29.7c4.5-8.6,11.5-15.7,20.1-20.2c8.7-4.6,18.8-6.8,30.4-6.8c11.8,0,22.7,2.2,32.9,6.5l-5,11.3
		c-10-4.2-19.5-6.3-28.8-6.3c-13.4,0-23.9,4-31.5,12s-11.3,19.1-11.3,33.3c0,14.9,3.6,26.2,10.9,33.9c7.3,7.7,17.9,11.5,32,11.5
		c7.6,0,15.1-0.9,22.4-2.6v-34h-24.7V71z"/>
	<path fill='white' d="M64,127.2L26.6,33.3H26c0.7,7.4,1.1,16.3,1.1,26.5v67.4H15.2v-106h19.3l34.9,87.4H70l35.2-87.4h19.2v106h-12.8V58.9
		c0-7.8,0.4-16.3,1.1-25.5h-0.6l-37.7,93.8H64z"/>
</g>
</svg>
